<?xml version="1.0" encoding="UTF-8" standalone="no"?>
<svg width="315px" height="315px" viewBox="0 0 315 315" version="1.1" xmlns="http://www.w3.org/2000/svg" xmlns:xlink="http://www.w3.org/1999/xlink" xmlns:sketch="http://www.bohemiancoding.com/sketch/ns">
    <!-- Generator: Sketch 3.0.2 (7799) - http://www.bohemiancoding.com/sketch -->
    <title>Ratchet logo</title>
    <description>Created with Sketch.</description>
    <defs></defs>
    <g id="Page-1" stroke="none" stroke-width="1" fill="none" fill-rule="evenodd" sketch:type="MSPage">
        <g id="Ratchet-logo" sketch:type="MSLayerGroup" fill="#FFFFFF">
            <path d="M157.5,197.72869 C135.284583,197.72869 117.273512,179.717619 117.273512,157.5 C117.273512,135.282381 135.284583,117.273512 157.5,117.273512 C179.717619,117.273512 197.726488,135.282381 197.726488,157.5 C197.726488,179.717619 179.717619,197.72869 157.5,197.72869 M232.206964,157.5 C232.206964,145.966131 239.30744,136.861488 250,130.602321 C248.075119,124.164762 245.52256,117.998095 242.381964,112.190417 C230.392202,115.32881 220.68631,110.631131 212.52869,102.473512 C204.371071,94.3158929 201.873571,84.6077976 205.011964,72.6202381 C199.20869,69.4796429 193.042024,66.924881 186.60006,65 C180.340893,75.6969643 169.036071,82.7930357 157.5,82.7930357 C145.966131,82.7930357 134.66131,75.6969643 128.39994,65 C121.960179,66.9226786 115.793512,69.4796429 109.990238,72.6158333 C113.126429,84.6077976 110.631131,94.3136905 102.473512,102.473512 C94.3158929,110.631131 84.6055952,115.32881 72.6180357,112.194821 C69.4774405,117.998095 66.924881,124.164762 65,130.602321 C75.6925595,136.861488 82.7930357,145.966131 82.7930357,157.5 C82.7930357,169.036071 75.6925595,180.340893 65,186.60006 C66.924881,193.039821 69.4774405,199.206488 72.6180357,205.014167 C84.6077976,201.875774 94.3158929,204.373274 102.473512,212.530893 C110.628929,220.688512 113.126429,230.394405 109.990238,242.384167 C115.793512,245.52256 121.960179,248.079524 128.402143,250 C134.663512,239.30744 145.966131,232.206964 157.5,232.206964 C169.036071,232.206964 180.340893,239.30744 186.60006,250 C193.042024,248.075119 199.20869,245.52256 205.014167,242.379762 C201.877976,230.394405 204.371071,220.688512 212.52869,212.530893 C220.68631,204.373274 230.394405,199.673393 242.381964,202.811786 C245.52256,197.004107 248.075119,190.83744 250,184.397679 C239.30744,178.138512 232.206964,169.036071 232.206964,157.5" id="Fill-112" sketch:type="MSShapeGroup"></path>
            <path d="M157.5,315 C244.484848,315 315,244.484848 315,157.5 C315,70.5151519 244.484848,0 157.5,0 C70.5151519,0 0,70.5151519 0,157.5 C0,244.484848 70.5151519,315 157.5,315 Z M157,303 C237.081289,303 302,238.081289 302,158 C302,77.9187113 237.081289,13 157,13 C76.9187113,13 12,77.9187113 12,158 C12,238.081289 76.9187113,303 157,303 Z" id="Oval-2" sketch:type="MSShapeGroup"></path>
        </g>
    </g>
</svg>